<svg id="Layer_1" data-name="Layer 1" xmlns="http://www.w3.org/2000/svg" xmlns:xlink="http://www.w3.org/1999/xlink" viewBox="0 0 706.91 174.78"><defs><style>.cls-1{fill:url(#linear-gradient);}.cls-2{fill:#575756;}.cls-3{fill:#a8a8a7;}.cls-4{fill:url(#linear-gradient-2);}.cls-5{fill:#050a02;}.cls-6{fill:url(#linear-gradient-3);}.cls-7{fill:url(#linear-gradient-4);}.cls-8{fill:url(#linear-gradient-5);}.cls-9{fill:url(#linear-gradient-6);}.cls-10{fill:url(#linear-gradient-7);}.cls-11{fill:url(#linear-gradient-8);}.cls-12{fill:url(#linear-gradient-9);}.cls-13{fill:url(#linear-gradient-10);}.cls-14{fill:#a6a6a6;}.cls-15{fill:url(#linear-gradient-11);}.cls-16{fill:url(#linear-gradient-12);}.cls-17{fill:url(#linear-gradient-13);}.cls-18{fill:#ffefc3;}.cls-19{fill:url(#linear-gradient-14);}.cls-20{fill:#df7a0d;}.cls-21{fill:url(#linear-gradient-15);}.cls-22{fill:url(#linear-gradient-16);}.cls-23{fill:#b3b3b3;}.cls-24{fill:#e6e6e6;}.cls-25{fill:url(#linear-gradient-17);}.cls-26{fill:#606366;}.cls-27{fill:#dbdbdb;}.cls-28{fill:#85898c;}.cls-29{fill:#5b5e61;}.cls-30{fill:url(#linear-gradient-18);}.cls-31{fill:url(#New_Gradient_Swatch_1);}.cls-32{fill:url(#linear-gradient-19);}.cls-33{fill:url(#linear-gradient-20);}.cls-34{fill:url(#linear-gradient-21);}.cls-35{fill:url(#linear-gradient-22);}.cls-36{fill:#fff;}</style><linearGradient id="linear-gradient" y1="0.72" x2="167.82" y2="0.72" gradientUnits="userSpaceOnUse"><stop offset="0.01" stop-color="#dadada"/><stop offset="0.39" stop-color="#c6c6c5"/><stop offset="1" stop-color="#a8a8a7"/></linearGradient><linearGradient id="linear-gradient-2" x1="176.58" y1="86.67" x2="10.17" y2="84.36" gradientUnits="userSpaceOnUse"><stop offset="0" stop-color="#aeaeae"/><stop offset="0.22" stop-color="#dcdcdc"/><stop offset="0.35" stop-color="#e5e5e5"/><stop offset="0.5" stop-color="#f4f4f4"/><stop offset="0.66" stop-color="#fff"/><stop offset="1" stop-color="#fff"/></linearGradient><linearGradient id="linear-gradient-3" x1="24.49" y1="19" x2="17.14" y2="60.93" gradientUnits="userSpaceOnUse"><stop offset="0" stop-color="gray"/><stop offset="0" stop-color="#828282"/><stop offset="0.05" stop-color="#989797"/><stop offset="0.1" stop-color="#a8a8a8"/><stop offset="0.16" stop-color="#b4b3b3"/><stop offset="0.25" stop-color="#bbbaba"/><stop offset="0.5" stop-color="#bdbcbc"/><stop offset="0.75" stop-color="#bbbaba"/><stop offset="0.84" stop-color="#b4b3b3"/><stop offset="0.9" stop-color="#a9a8a8"/><stop offset="0.95" stop-color="#989797"/><stop offset="1" stop-color="#828282"/><stop offset="1" stop-color="gray"/></linearGradient><linearGradient id="linear-gradient-4" x1="134.64" y1="26.12" x2="141.26" y2="33.98" gradientUnits="userSpaceOnUse"><stop offset="0" stop-color="gray"/><stop offset="0.16" stop-color="#8d8d8d"/><stop offset="0.46" stop-color="#b1b1b1"/><stop offset="0.86" stop-color="#eaeaea"/><stop offset="1" stop-color="#fff"/></linearGradient><linearGradient id="linear-gradient-5" x1="28.58" y1="19.09" x2="139.78" y2="19.09" gradientUnits="userSpaceOnUse"><stop offset="0" stop-color="gray"/><stop offset="0.07" stop-color="#959595"/><stop offset="0.17" stop-color="#afafaf"/><stop offset="0.27" stop-color="#c1c1c1"/><stop offset="0.38" stop-color="#ccc"/><stop offset="0.5" stop-color="#d0d0d0"/><stop offset="0.72" stop-color="#a6a6a6"/><stop offset="0.9" stop-color="#8a8a8a"/><stop offset="1" stop-color="gray"/></linearGradient><linearGradient id="linear-gradient-6" x1="18.8" y1="95.87" x2="84.13" y2="95.87" gradientUnits="userSpaceOnUse"><stop offset="0" stop-color="gray"/><stop offset="0.05" stop-color="#888"/><stop offset="0.12" stop-color="#9e9e9e"/><stop offset="0.15" stop-color="#a6a6a6"/><stop offset="0.18" stop-color="#a9a9a9"/><stop offset="0.42" stop-color="#bababa"/><stop offset="0.67" stop-color="#c4c4c4"/><stop offset="1" stop-color="#c7c7c7"/></linearGradient><linearGradient id="linear-gradient-7" x1="91.83" y1="123.43" x2="149.23" y2="62.95" gradientUnits="userSpaceOnUse"><stop offset="0" stop-color="gray"/><stop offset="0.25" stop-color="#838383"/><stop offset="0.43" stop-color="#8c8c8c"/><stop offset="0.57" stop-color="#9b9b9b"/><stop offset="0.71" stop-color="#b0b0b0"/><stop offset="0.83" stop-color="#ccc"/><stop offset="0.95" stop-color="#eee"/><stop offset="1" stop-color="#fff"/></linearGradient><linearGradient id="linear-gradient-8" x1="18.32" y1="79.82" x2="83.65" y2="145.48" gradientUnits="userSpaceOnUse"><stop offset="0" stop-color="#7c7c7b"/><stop offset="0.21" stop-color="#aaa"/><stop offset="0.41" stop-color="#dadada"/><stop offset="0.51" stop-color="#c7c7c7"/><stop offset="0.72" stop-color="#a4a4a4"/><stop offset="0.89" stop-color="#8f8f8f"/><stop offset="1" stop-color="#878787"/></linearGradient><linearGradient id="linear-gradient-9" x1="84.13" y1="113.13" x2="149.56" y2="113.13" gradientUnits="userSpaceOnUse"><stop offset="0" stop-color="#575756"/><stop offset="0.04" stop-color="#5d5d5c"/><stop offset="0.09" stop-color="#6e6d6d"/><stop offset="0.09" stop-color="#706f6f"/><stop offset="1" stop-color="#b2b2b2"/></linearGradient><linearGradient id="linear-gradient-10" x1="18.8" y1="115.33" x2="27.84" y2="115.33" gradientUnits="userSpaceOnUse"><stop offset="0" stop-color="#706f6f"/><stop offset="0.04" stop-color="#767575"/><stop offset="0.09" stop-color="#868686"/><stop offset="0.09" stop-color="#878787"/><stop offset="1" stop-color="#a6a6a6"/></linearGradient><linearGradient id="linear-gradient-11" x1="144.88" y1="147" x2="146.99" y2="128.85" gradientUnits="userSpaceOnUse"><stop offset="0" stop-color="#a6a6a6"/><stop offset="0.01" stop-color="#a9a9a9"/><stop offset="0.08" stop-color="#c4c4c4"/><stop offset="0.16" stop-color="#dadada"/><stop offset="0.26" stop-color="#ebebeb"/><stop offset="0.37" stop-color="#f6f6f6"/><stop offset="0.54" stop-color="#fdfdfd"/><stop offset="1" stop-color="#fff"/></linearGradient><linearGradient id="linear-gradient-12" x1="28.58" y1="22.69" x2="139.78" y2="22.69" gradientUnits="userSpaceOnUse"><stop offset="0" stop-color="#ffde47"/><stop offset="0.11" stop-color="#ffe674"/><stop offset="0.23" stop-color="#ffefa1"/><stop offset="0.34" stop-color="#fff5c2"/><stop offset="0.44" stop-color="#fff9d6"/><stop offset="0.5" stop-color="#fffadd"/><stop offset="0.71" stop-color="#fcd985"/><stop offset="0.91" stop-color="#fabc37"/><stop offset="1" stop-color="#f9b119"/></linearGradient><linearGradient id="linear-gradient-13" x1="26.32" y1="23.14" x2="23.13" y2="28.2" gradientUnits="userSpaceOnUse"><stop offset="0" stop-color="#ffde47"/><stop offset="0.11" stop-color="#ffe15a"/><stop offset="0.39" stop-color="#ffe787"/><stop offset="0.65" stop-color="#ffeba8"/><stop offset="0.86" stop-color="#ffeebc"/><stop offset="1" stop-color="#ffefc3"/></linearGradient><linearGradient id="linear-gradient-14" x1="145.37" y1="27.17" x2="141.73" y2="23.07" gradientUnits="userSpaceOnUse"><stop offset="0" stop-color="#df7a0d"/><stop offset="1" stop-color="#f9b119"/></linearGradient><linearGradient id="linear-gradient-15" x1="40.83" y1="60.56" x2="39" y2="55.78" gradientUnits="userSpaceOnUse"><stop offset="0" stop-color="#fac415"/><stop offset="0.39" stop-color="#fcd65e"/><stop offset="0.81" stop-color="#fee8a6"/><stop offset="1" stop-color="#ffefc3"/></linearGradient><linearGradient id="linear-gradient-16" x1="135.59" y1="57.4" x2="133.72" y2="60.65" gradientUnits="userSpaceOnUse"><stop offset="0" stop-color="#df7a0d"/><stop offset="1" stop-color="#c46816"/></linearGradient><linearGradient id="linear-gradient-17" x1="27.19" y1="146.63" x2="24.1" y2="144.7" gradientUnits="userSpaceOnUse"><stop offset="0.01" stop-color="#606366"/><stop offset="0.16" stop-color="#65676a"/><stop offset="0.33" stop-color="#727477"/><stop offset="0.51" stop-color="#888a8c"/><stop offset="0.69" stop-color="#a7a8aa"/><stop offset="0.88" stop-color="#cecfd0"/><stop offset="1" stop-color="#ededed"/></linearGradient><linearGradient id="linear-gradient-18" x1="141.66" y1="147.62" x2="145.04" y2="143.24" gradientUnits="userSpaceOnUse"><stop offset="0.01" stop-color="#5b5e61"/><stop offset="0.3" stop-color="#5f6366"/><stop offset="0.62" stop-color="#6c7073"/><stop offset="0.96" stop-color="#828689"/><stop offset="1" stop-color="#85898c"/></linearGradient><linearGradient id="New_Gradient_Swatch_1" x1="24.73" y1="72.53" x2="143.64" y2="72.53" gradientUnits="userSpaceOnUse"><stop offset="0" stop-color="#fbbb16"/><stop offset="0.09" stop-color="#fbc025"/><stop offset="0.25" stop-color="#fdcf4d"/><stop offset="0.48" stop-color="#ffe58e"/><stop offset="0.5" stop-color="#ffe895"/><stop offset="1" stop-color="#f6a313"/></linearGradient><linearGradient id="linear-gradient-19" x1="12.6" y1="-244.99" x2="131.51" y2="-244.99" gradientTransform="translate(12.13 364.5)" gradientUnits="userSpaceOnUse"><stop offset="0" stop-color="#2a3239"/><stop offset="0.05" stop-color="#333a41"/><stop offset="0.13" stop-color="#4a5157"/><stop offset="0.23" stop-color="#70757b"/><stop offset="0.34" stop-color="#a5a8ac"/><stop offset="0.47" stop-color="#e7e9eb"/><stop offset="0.49" stop-color="#f2f3f5"/><stop offset="0.54" stop-color="#cdcfd2"/><stop offset="0.62" stop-color="#9ba0a4"/><stop offset="0.71" stop-color="#73787d"/><stop offset="0.79" stop-color="#535a60"/><stop offset="0.86" stop-color="#3c444a"/><stop offset="0.94" stop-color="#2f363d"/><stop offset="1" stop-color="#2a3239"/></linearGradient><linearGradient id="linear-gradient-20" x1="24.73" y1="91.2" x2="84.13" y2="91.2" gradientUnits="userSpaceOnUse"><stop offset="0.01" stop-color="#ffebb6"/><stop offset="1" stop-color="#fffbde"/></linearGradient><linearGradient id="linear-gradient-21" x1="28.58" y1="26.25" x2="143.64" y2="26.25" gradientUnits="userSpaceOnUse"><stop offset="0" stop-color="#fff"/><stop offset="0.19" stop-color="#fffefb"/><stop offset="0.38" stop-color="#fffaee"/><stop offset="0.58" stop-color="#fff4d9"/><stop offset="0.79" stop-color="#ffebbc"/><stop offset="0.99" stop-color="#ffe197"/><stop offset="1" stop-color="#ffe095"/></linearGradient><linearGradient id="linear-gradient-22" x1="26.65" y1="48.18" x2="26.65" y2="60.17" gradientUnits="userSpaceOnUse"><stop offset="0" stop-color="#fff"/><stop offset="0.35" stop-color="#fffefd"/><stop offset="0.55" stop-color="#fffcf4"/><stop offset="0.71" stop-color="#fff8e6"/><stop offset="0.86" stop-color="#fff3d2"/><stop offset="0.99" stop-color="#ffecb9"/><stop offset="1" stop-color="#ffebb6"/></linearGradient></defs><title>vimar02_S_Nc</title><polygon class="cls-1" points="1.42 1.45 166.4 1.45 167.82 0 0 0 1.42 1.45"/><polygon class="cls-2" points="0 170.77 167.82 170.77 166.4 169.32 1.42 169.32 0 170.77"/><polygon class="cls-3" points="1.42 169.32 1.42 1.45 0 0 0 170.77 1.42 169.32"/><path class="cls-2" d="M167.82,170.77V0L166.4,1.45V169.32Z"/><rect class="cls-4" x="1.42" y="1.45" width="164.98" height="167.88"/><path class="cls-5" d="M0,170.77c65.26,5.34,103.13,5.35,167.82,0Z"/><path class="cls-6" d="M20.17,61.46V28.15a8.4,8.4,0,0,1,8.41-8.38V18.41a9.77,9.77,0,0,0-9.78,9.75V61.46Z"/><path class="cls-7" d="M149.56,61.46V28.15a9.77,9.77,0,0,0-9.78-9.75v1.37a8.4,8.4,0,0,1,8.41,8.38V61.46Z"/><rect class="cls-8" x="28.58" y="18.41" width="111.2" height="1.37"/><path class="cls-9" d="M84.13,128.37,23.39,68.56a8.87,8.87,0,0,1-3.22-7.1H18.8a10.26,10.26,0,0,0,3.65,8.1l61.68,60.73Z"/><path class="cls-10" d="M148.19,61.46a8.85,8.85,0,0,1-3.23,7.1L84.13,128.37v1.92l61.79-60.73a10.22,10.22,0,0,0,3.64-8.09Z"/><polygon class="cls-11" points="20.17 82.63 84.13 146.93 84.13 145 18.8 79.33 20.17 82.63"/><polygon class="cls-12" points="149.56 79.33 84.13 145 84.13 146.93 148.19 82.63 149.56 79.33"/><path class="cls-13" d="M18.8,79.33v62.94a9.06,9.06,0,0,0,9,9.06V150a7.69,7.69,0,0,1-7.67-7.69V82.63Z"/><rect class="cls-14" x="27.84" y="149.96" width="112.69" height="1.37"/><path class="cls-15" d="M148.19,82.63v59.64a7.69,7.69,0,0,1-7.67,7.69v1.37a9.06,9.06,0,0,0,9-9.06V79.33Z"/><path class="cls-5" d="M139.78,19.78H28.58a8.4,8.4,0,0,0-8.41,8.38V61.46a8.87,8.87,0,0,0,3.22,7.1l57.56,56.69,3.19,3.12,3.19-3.12L145,68.56a8.85,8.85,0,0,0,3.23-7.1V28.15A8.4,8.4,0,0,0,139.78,19.78Zm7.16,41.68a7.61,7.61,0,0,1-2.83,6.19l-57.67,56.7-2.31,2.26-2.3-2.26L24.25,67.65a7.62,7.62,0,0,1-2.83-6.19V28.15A7.15,7.15,0,0,1,28.58,21h111.2a7.15,7.15,0,0,1,7.16,7.12Z"/><path class="cls-5" d="M84.13,146.93l-64-64.3v59.64A7.69,7.69,0,0,0,27.84,150H140.53a7.69,7.69,0,0,0,7.67-7.69V82.63Zm62.81-4.66a6.43,6.43,0,0,1-6.41,6.44H27.84a6.43,6.43,0,0,1-6.42-6.44V85.66l62.71,63,62.81-63Z"/><rect class="cls-16" x="28.58" y="21.04" width="111.2" height="3.31"/><path class="cls-17" d="M24.73,28.15a3.83,3.83,0,0,1,3.86-3.8V21a7.15,7.15,0,0,0-7.16,7.12Z"/><rect class="cls-18" x="21.42" y="28.15" width="3.31" height="33.31"/><path class="cls-19" d="M146.94,28.15A7.15,7.15,0,0,0,139.78,21v3.31a3.83,3.83,0,0,1,3.86,3.8Z"/><rect class="cls-20" x="143.64" y="28.15" width="3.3" height="33.31"/><path class="cls-21" d="M84.13,120.72,26.51,65.23a4.37,4.37,0,0,1-1.79-3.78H21.42a7.62,7.62,0,0,0,2.83,6.19l59.88,59Z"/><path class="cls-22" d="M84.13,126.61l60-59a7.61,7.61,0,0,0,2.83-6.19h-3.3a4.37,4.37,0,0,1-1.78,3.78L84.13,120.72Z"/><polygon class="cls-23" points="84.13 148.71 21.42 85.66 24.73 93.64 76.51 145.39 84.13 148.71"/><polygon class="cls-24" points="24.73 142.27 24.73 93.64 21.42 85.66 21.42 142.27 24.73 142.27"/><path class="cls-25" d="M27.84,145.39a3.11,3.11,0,0,1-3.11-3.12H21.42a6.43,6.43,0,0,0,6.42,6.44Z"/><polygon class="cls-26" points="76.51 145.39 27.84 145.39 27.84 148.71 84.13 148.71 76.51 145.39"/><polygon class="cls-27" points="91.84 145.39 143.63 93.64 146.94 85.66 84.13 148.71 91.84 145.39"/><polygon class="cls-28" points="146.94 142.29 146.94 85.66 143.63 93.64 143.63 142.29 146.94 142.29"/><path class="cls-29" d="M84.13,148.71h56.39v-3.31H91.84Z"/><path class="cls-30" d="M140.53,148.71a6.43,6.43,0,0,0,6.41-6.44h-3.3a3.12,3.12,0,0,1-3.11,3.12Z"/><path class="cls-31" d="M139.78,24.35a3.83,3.83,0,0,1,3.86,3.8V61.46a4.37,4.37,0,0,1-1.78,3.78L84.13,120.72,26.51,65.23a4.37,4.37,0,0,1-1.79-3.78V28.15a3.83,3.83,0,0,1,3.86-3.8Z"/><path class="cls-32" d="M24.73,142.27a3.11,3.11,0,0,0,3.11,3.12H76.51L24.73,93.64Zm67.11,3.12h48.68a3.12,3.12,0,0,0,3.11-3.12V93.64Z"/><path class="cls-33" d="M25.86,61.69A3.86,3.86,0,0,0,27.24,65l56.89,54.53v1.19L26.51,65.46a4.36,4.36,0,0,1-1.79-3.77Z"/><path class="cls-34" d="M28.58,24.35h111.2a3.83,3.83,0,0,1,3.86,3.8,2.7,2.7,0,0,0-2.71-2.67H28.58Z"/><path class="cls-35" d="M24.73,61.69V28.15a3.83,3.83,0,0,1,3.86-3.8v1.13a2.7,2.7,0,0,0-2.72,2.67V61.69Z"/><path class="cls-36" d="M27.84,145.39c-1.09,0-2.46-2.14-2.46-3.23v-47l50.37,50.25h.76L24.73,93.64v48.63A3.11,3.11,0,0,0,27.84,145.39Z"/><polygon class="cls-36" points="142.99 95.14 92.61 145.39 91.84 145.39 143.63 93.64 142.99 95.14"/><polygon class="cls-36" points="242.8 150.04 201.5 19.78 231.04 19.78 255.87 109.44 281.46 19.78 308.63 19.78 266.76 150.04 242.8 150.04"/><rect class="cls-36" x="318.72" y="19.77" width="27.19" height="130.27"/><polygon class="cls-36" points="466.06 150.04 460.47 65.34 428.14 150.04 424.33 150.04 392.43 64.98 386.56 150.04 360.55 150.04 372.32 19.78 399.48 19.78 426.38 92.1 453.57 19.78 480.48 19.78 492.66 150.04 466.06 150.04"/><path class="cls-36" d="M575.4,150l-7-26h-37l-7.51,26h-26.9L537.78,19.78h26.3l40,130.26Zm-12.47-46.13-12.5-48.34-13.54,48.34Z"/><path class="cls-36" d="M681.95,88.46c2.12-.28,19.91-10.84,18.33-35.11C699,33.93,685.36,24.92,679.14,22.67S655.48,14.92,612,21.3V150h27.08v-51H653.7c2.38,0,11,.45,15.18,11.48,2.27,6,11.89,39.5,11.89,39.5h26.15c-1.69-6.21-7.07-27.08-9.29-35.26-2.36-8.67-5.52-21.5-15.67-25.55ZM653.75,77.73H638.22V42a69.63,69.63,0,0,1,21.3-.77c8.62,1,15.22,7.42,15.36,16.29.23,15.13-9.83,20-21.12,20.24"/></svg>